# xmcd
#
# Track frame offsets:
#	150
#	7428
#	21751
#	34383
#	41935
#	54869
#	63681
#	74164
#
# Disc length: 1134 seconds
#
# Revision: 1
# Processed by: cddbd v1.5.2PL0 Copyright (c) Steve Scherf et al.
# Submitted via: audiograbber 1.83.01
#
DISCID=7c046c08
DTITLE=Immured - Promo 2002
DYEAR=2002
DGENRE=Grind
TTITLE0=Yuppie Pig
TTITLE1=Bloody Spawn
TTITLE2=Plant The Seed
TTITLE3=Dis-Troy
TTITLE4=You Are Virus
TTITLE5=Labour Oppression
TTITLE6=Iron Fist
TTITLE7=Disco AG
EXTD=
EXTT0=
EXTT1=
EXTT2=
EXTT3=
EXTT4=
EXTT5=
EXTT6=
EXTT7=
PLAYORDER=
